<svg height='300px' width='300px'  fill="#000000" xmlns="http://www.w3.org/2000/svg" data-name="Layer 13" viewBox="0 0 48 48" x="0px" y="0px"><title>designer_design graphic_creative</title><path d="M41,2H7A5.006,5.006,0,0,0,2,7V41a5.006,5.006,0,0,0,5,5H41a5.006,5.006,0,0,0,5-5V7A5.006,5.006,0,0,0,41,2ZM32,35H26V29a1,1,0,0,0-.5-0.868L19,24.42V18.414l1.707-1.707A1,1,0,0,0,21,16V14h1a1,1,0,0,0,.97-0.757L23.781,10H29a3,3,0,0,1,3,3V35ZM12,30.723l5,2.857v5.7L12,36.42v-5.7ZM19,14v1.586l-1,1-1-1V14h2ZM18,26.152L22.984,29,18,31.848,13.016,29Zm1,7.428,5-2.857v5.7l-5,2.857v-5.7ZM21.219,12H14.781l-0.5-2h7.438Zm-9-2,0.811,3.243A1,1,0,0,0,14,14h1v2a1,1,0,0,0,.293.707L17,18.414V24.42l-6.5,3.712A1,1,0,0,0,10,29v6H4V13a3,3,0,0,1,3-3h5.219ZM7,44a3,3,0,0,1-3-3V37h6a1,1,0,0,0,.5.868l7,4a1,1,0,0,0,.992,0l7-4A1,1,0,0,0,26,37h6v4a3,3,0,0,1-3,3H7Zm37-3a3,3,0,0,1-3,3H32.974A4.951,4.951,0,0,0,34,41V13a5.006,5.006,0,0,0-5-5H7A4.951,4.951,0,0,0,4,9.026V7A3,3,0,0,1,7,4H41a3,3,0,0,1,3,3V41Z"></path><path d="M42,17H36a1,1,0,0,0-1,1V28a1,1,0,0,0,1,1h6a1,1,0,0,0,1-1V18A1,1,0,0,0,42,17ZM41,27H37V19h4v8Z"></path><path d="M38.293,12.715a1,1,0,0,0,1.414,0l3-3a1,1,0,0,0,.021-1.393c-3.34-3.549-3.367-3.538-4.093-3.251a1,1,0,0,0-.379.267L35.293,8.3a1,1,0,0,0,0,1.414ZM39.042,7.38c0.414,0.414.987,1,1.563,1.609l-1.6,1.6L37.414,9.008Z"></path><rect x="35" y="31" width="8" height="2"></rect><rect x="35" y="35" width="8" height="2"></rect></svg>